<svg version="1.1" id="Layer_1" xmlns="http://www.w3.org/2000/svg" xmlns:xlink="http://www.w3.org/1999/xlink" x="0px" y="0px"
	 width="100%" viewBox="0 0 1000 600" enable-background="new 0 0 1000 600" xml:space="preserve">
<path fill="#FFFFFF" opacity="1.000000" stroke="none" 
	d="
M1.000000,259.000000 
	C1.000000,230.312439 1.000000,201.624878 1.206110,172.389679 
	C1.666791,171.679947 1.859229,171.462784 2.431284,171.144867 
	C5.242435,171.049408 7.611835,170.999649 10.246531,170.962845 
	C10.685372,170.940613 10.858917,170.905426 11.497954,170.902130 
	C69.297867,170.909775 126.632286,170.885529 184.226776,170.916351 
	C184.663925,170.963562 184.840988,170.955719 185.413361,170.986115 
	C186.866440,171.000076 187.924194,170.975769 189.246933,170.963837 
	C189.685135,170.940720 189.858383,170.905228 190.497192,170.901154 
	C200.297562,170.909180 209.632370,170.885773 219.227127,170.917160 
	C219.664017,170.963974 219.840942,170.956009 220.442505,170.986328 
	C222.571869,170.999817 224.276566,170.975021 226.246552,170.963211 
	C226.685425,170.941086 226.858978,170.905960 227.498016,170.902679 
	C254.964523,170.913010 281.965546,170.891495 309.226990,170.922180 
	C309.664246,170.965424 309.841064,170.956451 310.483398,170.985153 
	C316.626556,170.996918 322.304169,170.971024 328.246704,170.957886 
	C328.684814,170.934937 328.857971,170.899231 329.496582,170.897247 
	C353.630219,170.908890 377.298401,170.886780 401.226715,170.919296 
	C401.663879,170.965958 401.840881,170.958008 402.413269,170.987793 
	C403.866333,171.000473 404.924011,170.975403 406.246826,170.962585 
	C406.685181,170.939117 406.858459,170.903412 407.497253,170.899597 
	C459.966217,170.914246 511.969635,170.896988 564.313477,170.937469 
	C565.111023,170.956787 565.568237,170.918365 566.491455,170.909637 
	C593.407898,170.948303 619.858215,170.973618 646.308533,170.962952 
	C706.527954,170.938660 766.747314,170.896729 827.226990,170.915527 
	C827.664185,170.960388 827.841064,170.951721 828.464905,170.981461 
	C831.601685,170.994461 834.291504,170.969025 837.246521,170.956421 
	C837.684998,170.933426 837.858337,170.897598 838.497009,170.896210 
	C842.784363,170.941849 846.606323,170.960144 850.428284,170.963120 
	C900.280579,171.001877 950.132935,171.038467 1000.102173,171.281433 
	C1000.420898,171.747238 1000.681213,171.918152 1001.000000,172.000000 
	C1001.000000,200.687561 1001.000000,229.375122 1000.531616,258.513977 
	C667.874878,258.961853 335.686523,258.958405 3.498219,258.956879 
	C2.665480,258.956848 1.832740,258.985016 1.000000,259.000000 
z"/>
<path fill="#FFFFFF" opacity="1.000000" stroke="none" 
	d="
M1.000000,430.000000 
	C1.000000,401.312439 1.000000,372.624878 1.467255,343.509766 
	C2.934076,343.091400 3.933642,343.108521 4.933207,343.108551 
	C282.646973,343.111755 560.360718,343.119934 838.074463,343.110535 
	C892.382996,343.108704 946.691467,343.038605 1001.000000,343.000000 
	C1001.000000,371.687561 1001.000000,400.375122 1000.531494,429.518341 
	C908.045654,429.988007 816.028381,430.002045 723.783325,429.741486 
	C722.033691,429.648773 720.511719,429.830658 718.521973,429.996216 
	C688.574768,429.975555 659.095276,429.966248 629.615845,429.967682 
	C442.746155,429.976685 255.876450,429.988007 68.740868,429.712677 
	C65.980927,429.618256 63.486862,429.809753 60.524750,429.987762 
	C40.371132,429.982819 20.685566,429.991394 1.000000,430.000000 
z"/>
<path fill="#ED7BA8" opacity="1.000000" stroke="none" 
	d="
M1001.000000,515.000000 
	C1001.000000,543.656067 1001.000000,572.312195 1001.000000,600.950439 
	C667.666687,600.950439 334.333313,600.950439 1.000000,600.950439 
	C1.000000,572.577942 1.000000,544.255005 1.468615,515.473206 
	C334.958160,515.009521 667.979065,515.004761 1001.000000,515.000000 
z"/>
<path fill="#6993D8" opacity="1.000000" stroke="none" 
	d="
M1.000000,86.000000 
	C1.000000,57.677124 1.000000,29.354248 1.000000,1.049686 
	C334.333344,1.049686 667.666687,1.049686 1001.000000,1.049686 
	C1001.000000,29.088886 1001.000000,57.078403 1000.531494,85.549019 
	C805.981201,86.033073 611.899292,86.041626 417.817413,86.037071 
	C278.878265,86.033813 139.939133,86.012993 1.000000,86.000000 
z"/>
<path fill="#90C3EA" opacity="1.000000" stroke="none" 
	d="
M1.000000,86.468658 
	C139.939133,86.012993 278.878265,86.033813 417.817413,86.037071 
	C611.899292,86.041626 805.981201,86.033073 1000.531494,86.015060 
	C1001.000000,114.020897 1001.000000,142.041794 1000.744263,170.522736 
	C1000.320740,171.013718 1000.153015,171.044662 999.985229,171.075623 
	C950.132935,171.038467 900.280579,171.001877 850.428284,170.963120 
	C846.606323,170.960144 842.784363,170.941849 838.388855,170.748413 
	C837.537354,170.691971 837.259338,170.817780 836.981384,170.943588 
	C834.291504,170.969025 831.601685,170.994461 828.373535,170.820648 
	C827.545715,170.701614 827.256226,170.781815 826.966736,170.862000 
	C766.747314,170.896729 706.527954,170.938660 646.308533,170.962952 
	C619.858215,170.973618 593.407898,170.948303 566.331787,170.706024 
	C565.128296,170.608383 564.550720,170.744049 563.973083,170.879730 
	C511.969635,170.896988 459.966217,170.914246 407.389343,170.750702 
	C406.537842,170.696732 406.259766,170.823532 405.981720,170.950348 
	C404.924011,170.975403 403.866333,171.000473 402.322601,170.825897 
	C401.546570,170.705750 401.256592,170.785217 400.966583,170.864685 
	C377.298401,170.886780 353.630219,170.908890 329.388641,170.749207 
	C328.537445,170.693314 328.259613,170.819214 327.981812,170.945099 
	C322.304169,170.971024 316.626556,170.996918 310.391968,170.823669 
	C309.545563,170.706329 309.256073,170.788147 308.966583,170.869965 
	C281.965546,170.891495 254.964523,170.913010 227.390289,170.753326 
	C226.538483,170.698151 226.259872,170.824203 225.981262,170.950226 
	C224.276566,170.975021 222.571869,170.999817 220.351807,170.824799 
	C219.546677,170.704132 219.256927,170.783249 218.967178,170.862381 
	C209.632370,170.885773 200.297562,170.909180 190.389465,170.751938 
	C189.538116,170.698029 189.260040,170.824753 188.981964,170.951477 
	C187.924194,170.975769 186.866440,171.000076 185.322632,170.824585 
	C184.546616,170.703644 184.256668,170.782471 183.966705,170.861282 
	C126.632286,170.885529 69.297867,170.909775 11.390194,170.752838 
	C10.538371,170.697754 10.259801,170.823822 9.981233,170.949890 
	C7.611835,170.999649 5.242435,171.049408 2.187872,171.076569 
	C1.335138,171.035965 1.167569,171.017990 1.000000,171.000000 
	C1.000000,142.979111 1.000000,114.958214 1.000000,86.468658 
z"/>
<path fill="#F8ABC5" opacity="1.000000" stroke="none" 
	d="
M1001.000000,514.531372 
	C667.979065,515.004761 334.958160,515.009521 1.468615,515.007141 
	C1.000000,486.979095 1.000000,458.958221 1.000000,430.468658 
	C20.685566,429.991394 40.371132,429.982819 60.778221,430.287598 
	C64.002075,430.400177 66.504410,430.199402 69.006744,429.998596 
	C255.876450,429.988007 442.746155,429.976685 629.615845,429.967682 
	C659.095276,429.966248 688.574768,429.975555 718.740845,430.278381 
	C720.955383,430.389954 722.483215,430.203003 724.011108,430.016052 
	C816.028381,430.002045 908.045654,429.988007 1000.531494,429.987000 
	C1001.000000,458.020905 1001.000000,486.041779 1001.000000,514.531372 
z"/>
<path fill="#C4A4EB" opacity="1.000000" stroke="none" 
	d="
M1001.000000,342.531342 
	C946.691467,343.038605 892.382996,343.108704 838.074463,343.110535 
	C560.360718,343.119934 282.646973,343.111755 4.933207,343.108551 
	C3.933642,343.108521 2.934076,343.091400 1.467255,343.041138 
	C1.000000,315.312439 1.000000,287.624878 1.000000,259.468658 
	C1.832740,258.985016 2.665480,258.956848 3.498219,258.956879 
	C335.686523,258.958405 667.874878,258.961853 1000.531616,258.982605 
	C1001.000000,286.687561 1001.000000,314.375122 1001.000000,342.531342 
z"/>
<path fill="#F6EBF2" opacity="1.000000" stroke="none" 
	d="
M1000.102173,171.281418 
	C1000.153015,171.044662 1000.320740,171.013718 1000.744263,170.991394 
	C1001.000000,171.000000 1001.000000,171.500000 1001.000000,171.750000 
	C1000.681213,171.918152 1000.420898,171.747238 1000.102173,171.281418 
z"/>
<path fill="#F6EBF2" opacity="1.000000" stroke="none" 
	d="
M1.000000,171.250000 
	C1.167569,171.017990 1.335138,171.035965 1.746120,171.122269 
	C1.859229,171.462784 1.666791,171.679947 1.206110,171.921021 
	C1.000000,172.000000 1.000000,171.500000 1.000000,171.250000 
z"/>
<path fill="#B4CBE5" opacity="1.000000" stroke="none" 
	d="
M564.313477,170.937469 
	C564.550720,170.744049 565.128296,170.608383 565.865662,170.676331 
	C565.568237,170.918365 565.111023,170.956787 564.313477,170.937469 
z"/>
<path fill="#B4CBE5" opacity="1.000000" stroke="none" 
	d="
M837.246521,170.956421 
	C837.259338,170.817780 837.537354,170.691971 837.923462,170.713959 
	C837.858337,170.897598 837.684998,170.933426 837.246521,170.956421 
z"/>
<path fill="#B4CBE5" opacity="1.000000" stroke="none" 
	d="
M10.246531,170.962845 
	C10.259801,170.823822 10.538371,170.697754 10.924702,170.720963 
	C10.858917,170.905426 10.685372,170.940613 10.246531,170.962845 
z"/>
<path fill="#B4CBE5" opacity="1.000000" stroke="none" 
	d="
M184.226776,170.916351 
	C184.256668,170.782471 184.546616,170.703644 184.927307,170.786346 
	C184.840988,170.955719 184.663925,170.963562 184.226776,170.916351 
z"/>
<path fill="#B4CBE5" opacity="1.000000" stroke="none" 
	d="
M189.246933,170.963837 
	C189.260040,170.824753 189.538116,170.698029 189.923904,170.720520 
	C189.858383,170.905228 189.685135,170.940720 189.246933,170.963837 
z"/>
<path fill="#B4CBE5" opacity="1.000000" stroke="none" 
	d="
M827.226990,170.915527 
	C827.256226,170.781815 827.545715,170.701614 827.926636,170.782227 
	C827.841064,170.951721 827.664185,170.960388 827.226990,170.915527 
z"/>
<path fill="#B4CBE5" opacity="1.000000" stroke="none" 
	d="
M406.246826,170.962585 
	C406.259766,170.823532 406.537842,170.696732 406.923798,170.718811 
	C406.858459,170.903412 406.685181,170.939117 406.246826,170.962585 
z"/>
<path fill="#B4CBE5" opacity="1.000000" stroke="none" 
	d="
M401.226715,170.919312 
	C401.256592,170.785217 401.546570,170.705750 401.927246,170.788177 
	C401.840881,170.958008 401.663879,170.965958 401.226715,170.919312 
z"/>
<path fill="#B4CBE5" opacity="1.000000" stroke="none" 
	d="
M328.246704,170.957886 
	C328.259613,170.819214 328.537445,170.693314 328.923187,170.715454 
	C328.857971,170.899231 328.684814,170.934937 328.246704,170.957886 
z"/>
<path fill="#B4CBE5" opacity="1.000000" stroke="none" 
	d="
M309.226990,170.922180 
	C309.256073,170.788147 309.545563,170.706329 309.926483,170.785995 
	C309.841064,170.956451 309.664246,170.965424 309.226990,170.922180 
z"/>
<path fill="#B4CBE5" opacity="1.000000" stroke="none" 
	d="
M226.246552,170.963226 
	C226.259872,170.824203 226.538483,170.698151 226.924805,170.721481 
	C226.858978,170.905960 226.685425,170.941086 226.246552,170.963226 
z"/>
<path fill="#B4CBE5" opacity="1.000000" stroke="none" 
	d="
M219.227127,170.917160 
	C219.256927,170.783249 219.546677,170.704132 219.927139,170.786530 
	C219.840942,170.956009 219.664017,170.963974 219.227127,170.917160 
z"/>
<path fill="#F6EBF2" opacity="1.000000" stroke="none" 
	d="
M68.740868,429.712708 
	C66.504410,430.199402 64.002075,430.400177 61.246273,430.301117 
	C63.486862,429.809753 65.980927,429.618256 68.740868,429.712708 
z"/>
<path fill="#F6EBF2" opacity="1.000000" stroke="none" 
	d="
M723.783325,429.741516 
	C722.483215,430.203003 720.955383,430.389954 719.208618,430.294678 
	C720.511719,429.830658 722.033691,429.648773 723.783325,429.741516 
z"/>
</svg>