<svg version="1.1" id="Layer_1" xmlns="http://www.w3.org/2000/svg" xmlns:xlink="http://www.w3.org/1999/xlink" x="0px" y="0px"
	 width="100%" viewBox="0 0 2000 1200" enable-background="new 0 0 2000 1200" xml:space="preserve">
<path fill="#ED78AA" opacity="1.000000" stroke="none" 
	d="
M1.000000,241.000000 
	C1.000000,161.013306 1.000000,81.026627 1.000000,1.019970 
	C667.542419,1.019970 1334.084839,1.019970 2001.000000,1.019970 
	C2001.000000,80.695648 2001.000000,160.391876 2000.538574,240.635193 
	C1998.244751,241.211273 1996.412476,241.265640 1994.580200,241.265656 
	C1332.213013,241.269302 669.845825,241.269485 7.478629,241.258133 
	C5.319084,241.258102 3.159543,241.089752 1.000000,241.000000 
z"/>
<path fill="#FDF44D" opacity="1.000000" stroke="none" 
	d="
M1.000000,241.468658 
	C3.159543,241.089752 5.319084,241.258102 7.478629,241.258133 
	C669.845825,241.269485 1332.213013,241.269302 1994.580200,241.265656 
	C1996.412476,241.265640 1998.244751,241.211273 2000.538574,241.091141 
	C2001.000000,320.687561 2001.000000,400.375122 2000.540771,480.635132 
	C1998.249390,481.237946 1996.417236,481.294952 1994.585083,481.294983 
	C1332.214355,481.298798 669.843750,481.299011 7.473045,481.286438 
	C5.315362,481.286377 3.157682,481.099579 1.000000,481.000000 
	C1.000000,401.312439 1.000000,321.624878 1.000000,241.468658 
z"/>
<path fill="#FFFFFF" opacity="1.000000" stroke="none" 
	d="
M1.000000,481.468658 
	C3.157682,481.099579 5.315362,481.286377 7.473045,481.286438 
	C669.843750,481.299011 1332.214355,481.298798 1994.585083,481.294983 
	C1996.417236,481.294952 1998.249390,481.237946 2000.540771,481.103760 
	C2001.000000,560.687561 2001.000000,640.375122 2000.541016,720.426025 
	C1998.250000,720.758484 1996.417847,720.700562 1994.585815,720.700562 
	C1332.214600,720.696655 669.843445,720.696411 7.472256,720.709229 
	C5.314836,720.709229 3.157419,720.898926 1.000000,721.000000 
	C1.000000,641.312439 1.000000,561.624878 1.000000,481.468658 
z"/>
<path fill="#AE6DBE" opacity="1.000000" stroke="none" 
	d="
M1.000000,721.468628 
	C3.157419,720.898926 5.314836,720.709229 7.472256,720.709229 
	C669.843445,720.696411 1332.214600,720.696655 1994.585815,720.700562 
	C1996.417847,720.700562 1998.250000,720.758484 2000.541016,720.894653 
	C2001.000000,800.687561 2001.000000,880.375122 2000.532715,960.490417 
	C1998.232666,960.902710 1996.399902,960.873718 1994.567139,960.873718 
	C1332.209595,960.871765 669.851990,960.871704 7.494410,960.877136 
	C5.329606,960.877136 3.164803,960.957275 1.000000,961.000000 
	C1.000000,881.312439 1.000000,801.624878 1.000000,721.468628 
z"/>
<path fill="#719EE3" opacity="1.000000" stroke="none" 
	d="
M1.000000,961.468628 
	C3.164803,960.957275 5.329606,960.877136 7.494410,960.877136 
	C669.851990,960.871704 1332.209595,960.871765 1994.567139,960.873718 
	C1996.399902,960.873718 1998.232666,960.902710 2000.532715,960.959106 
	C2001.000000,1040.985962 2001.000000,1120.971802 2001.000000,1200.952515 
	C1334.333374,1200.947266 667.666687,1200.947266 1.000000,1200.947266 
	C1.000000,1121.242188 1.000000,1041.589722 1.000000,961.468628 
z"/>
</svg>