<?xml version="1.0" standalone="no"?>
<!DOCTYPE svg PUBLIC "-//W3C//DTD SVG 1.1//EN"
 "http://www.w3.org/Graphics/SVG/1.1/DTD/svg11.dtd">
<!-- Created with svg_stack (http://github.com/astraw/svg_stack) -->
<svg xmlns:sodipodi="http://sodipodi.sourceforge.net/DTD/sodipodi-0.dtd" xmlns="http://www.w3.org/2000/svg" version="1.1" width="9000.0" height="5400.0">
  <defs/>
  <g id="id0:id0" transform="matrix(1.25,0,0,1.25,0.0,0.0)"><g transform="translate(0.000000,4320.000000) scale(0.040000,-0.040000)" fill="#fefefe" stroke="none">
<path d="M0 64760 c0 -7 30007 -10 90000 -10 59993 0 90000 3 90000 10 0 7 -30007 10 -90000 10 -59993 0 -90000 -3 -90000 -10z"/>
<path d="M0 43240 c0 -7 30007 -10 90000 -10 59993 0 90000 3 90000 10 0 7 -30007 10 -90000 10 -59993 0 -90000 -3 -90000 -10z"/>
</g>
</g>
  <g id="id1:id1" transform="matrix(1.25,0,0,1.25,0.0,0.0)"><g transform="translate(0.000000,4320.000000) scale(0.040000,-0.040000)" fill="#ffffff" stroke="none">
<path d="M0 64780 c0 -7 30007 -10 90000 -10 59993 0 90000 3 90000 10 0 7 -30007 10 -90000 10 -59993 0 -90000 -3 -90000 -10z"/>
<path d="M0 54000 l0 -10750 90000 0 90000 0 0 10750 0 10750 -90000 0 -90000 0 0 -10750z"/>
<path d="M0 43220 c0 -7 30007 -10 90000 -10 59993 0 90000 3 90000 10 0 7 -30007 10 -90000 10 -59993 0 -90000 -3 -90000 -10z"/>
</g>
</g>
  <g id="id2:id2" transform="matrix(1.25,0,0,1.25,0.0,0.0)"><g transform="translate(0.000000,4320.000000) scale(0.040000,-0.040000)" fill="#eeefee" stroke="none">
<path d="M44998 64793 c24751 -2 65253 -2 90005 0 24751 1 4500 2 -45003 2 -49503 0 -69754 -1 -45002 -2z"/>
<path d="M44998 43203 c24751 -2 65253 -2 90005 0 24751 1 4500 2 -45003 2 -49503 0 -69754 -1 -45002 -2z"/>
</g>
</g>
  <g id="id3:id3" transform="matrix(1.25,0,0,1.25,0.0,0.0)"><g transform="translate(0.000000,4320.000000) scale(0.040000,-0.040000)" fill="#c1c1c0" stroke="none">
<path d="M44998 64803 c24751 -2 65253 -2 90005 0 24751 1 4500 2 -45003 2 -49503 0 -69754 -1 -45002 -2z"/>
<path d="M44998 43193 c24751 -2 65253 -2 90005 0 24751 1 4500 2 -45003 2 -49503 0 -69754 -1 -45002 -2z"/>
</g>
</g>
  <g id="id4:id4" transform="matrix(1.25,0,0,1.25,0.0,0.0)"><g transform="translate(0.000000,4320.000000) scale(0.040000,-0.040000)" fill="#c1b6bf" stroke="none">
<path d="M44998 86383 c24751 -2 65253 -2 90005 0 24751 1 4500 2 -45003 2 -49503 0 -69754 -1 -45002 -2z"/>
<path d="M44998 21613 c24751 -2 65253 -2 90005 0 24751 1 4500 2 -45003 2 -49503 0 -69754 -1 -45002 -2z"/>
</g>
</g>
  <g id="id5:id5" transform="matrix(1.25,0,0,1.25,0.0,0.0)"><g transform="translate(0.000000,4320.000000) scale(0.040000,-0.040000)" fill="#bab4b8" stroke="none">
<path d="M44998 86373 c24751 -2 65253 -2 90005 0 24751 1 4500 2 -45003 2 -49503 0 -69754 -1 -45002 -2z"/>
<path d="M44998 21623 c24751 -2 65253 -2 90005 0 24751 1 4500 2 -45003 2 -49503 0 -69754 -1 -45002 -2z"/>
</g>
</g>
  <g id="id6:id6" transform="matrix(1.25,0,0,1.25,0.0,0.0)"><g transform="translate(0.000000,4320.000000) scale(0.040000,-0.040000)" fill="#b2b3b1" stroke="none">
<path d="M44998 64833 c24751 -2 65253 -2 90005 0 24751 1 4500 2 -45003 2 -49503 0 -69754 -1 -45002 -2z"/>
<path d="M44998 43163 c24751 -2 65253 -2 90005 0 24751 1 4500 2 -45003 2 -49503 0 -69754 -1 -45002 -2z"/>
</g>
</g>
  <g id="id7:id7" transform="matrix(1.25,0,0,1.25,0.0,0.0)"><g transform="translate(0.000000,4320.000000) scale(0.040000,-0.040000)" fill="#b0b1af" stroke="none">
<path d="M0 75600 l0 -10760 90000 0 90000 0 0 10760 0 10760 -90000 0 -90000 0 0 -10760z"/>
<path d="M0 32400 l0 -10760 90000 0 90000 0 0 10760 0 10760 -90000 0 -90000 0 0 -10760z"/>
</g>
</g>
  <g id="id8:id8" transform="matrix(1.25,0,0,1.25,0.0,0.0)"><g transform="translate(0.000000,4320.000000) scale(0.040000,-0.040000)" fill="#abafaa" stroke="none">
<path d="M44998 86363 c24751 -2 65253 -2 90005 0 24751 1 4500 2 -45003 2 -49503 0 -69754 -1 -45002 -2z"/>
<path d="M44998 21633 c24751 -2 65253 -2 90005 0 24751 1 4500 2 -45003 2 -49503 0 -69754 -1 -45002 -2z"/>
</g>
</g>
  <g id="id9:id9" transform="matrix(1.25,0,0,1.25,0.0,0.0)"><g transform="translate(0.000000,4320.000000) scale(0.040000,-0.040000)" fill="#aaaba9" stroke="none">
<path d="M0 64820 c0 -7 30007 -10 90000 -10 59993 0 90000 3 90000 10 0 7 -30007 10 -90000 10 -59993 0 -90000 -3 -90000 -10z"/>
<path d="M0 43180 c0 -7 30007 -10 90000 -10 59993 0 90000 3 90000 10 0 7 -30007 10 -90000 10 -59993 0 -90000 -3 -90000 -10z"/>
</g>
</g>
  <g id="id10:id10" transform="matrix(1.25,0,0,1.25,0.0,0.0)"><g transform="translate(0.000000,4320.000000) scale(0.040000,-0.040000)" fill="#8da68f" stroke="none">
<path d="M44998 86393 c24751 -2 65253 -2 90005 0 24751 1 4500 2 -45003 2 -49503 0 -69754 -1 -45002 -2z"/>
<path d="M44998 21603 c24751 -2 65253 -2 90005 0 24751 1 4500 2 -45003 2 -49503 0 -69754 -1 -45002 -2z"/>
</g>
</g>
  <g id="id11:id11" transform="matrix(1.25,0,0,1.25,0.0,0.0)"><g transform="translate(0.000000,4320.000000) scale(0.040000,-0.040000)" fill="#2b8836" stroke="none">
<path d="M44998 86403 c24751 -2 65253 -2 90005 0 24751 1 4500 2 -45003 2 -49503 0 -69754 -1 -45002 -2z"/>
<path d="M44998 21593 c24751 -2 65253 -2 90005 0 24751 1 4500 2 -45003 2 -49503 0 -69754 -1 -45002 -2z"/>
</g>
</g>
  <g id="id12:id12" transform="matrix(1.25,0,0,1.25,0.0,0.0)"><g transform="translate(0.000000,4320.000000) scale(0.040000,-0.040000)" fill="#0d7f1b" stroke="none">
<path d="M44998 86433 c24751 -2 65253 -2 90005 0 24751 1 4500 2 -45003 2 -49503 0 -69754 -1 -45002 -2z"/>
<path d="M44998 21563 c24751 -2 65253 -2 90005 0 24751 1 4500 2 -45003 2 -49503 0 -69754 -1 -45002 -2z"/>
</g>
</g>
  <g id="id13:id13" transform="matrix(1.25,0,0,1.25,0.0,0.0)"><g transform="translate(0.000000,4320.000000) scale(0.040000,-0.040000)" fill="#087d16" stroke="none">
<path d="M0 97220 l0 -10780 90000 0 90000 0 0 10780 0 10780 -90000 0 -90000 0 0 -10780z"/>
<path d="M0 10780 l0 -10780 90000 0 90000 0 0 10780 0 10780 -90000 0 -90000 0 0 -10780z"/>
</g>
</g>
  <g id="id14:id14" transform="matrix(1.25,0,0,1.25,0.0,0.0)"><g transform="translate(0.000000,4320.000000) scale(0.040000,-0.040000)" fill="#007a0d" stroke="none">
<path d="M44998 86423 c24751 -2 65253 -2 90005 0 24751 1 4500 2 -45003 2 -49503 0 -69754 -1 -45002 -2z"/>
<path d="M44998 21573 c24751 -2 65253 -2 90005 0 24751 1 4500 2 -45003 2 -49503 0 -69754 -1 -45002 -2z"/>
</g>
</g>
  <g id="id15:id15" transform="matrix(1.25,0,0,1.25,0.0,0.0)"><g transform="translate(0.000000,4320.000000) scale(0.040000,-0.040000)" fill="#007806" stroke="none">
<path d="M44998 86413 c24751 -2 65253 -2 90005 0 24751 1 4500 2 -45003 2 -49503 0 -69754 -1 -45002 -2z"/>
<path d="M44998 21583 c24751 -2 65253 -2 90005 0 24751 1 4500 2 -45003 2 -49503 0 -69754 -1 -45002 -2z"/>
</g>
</g>
</svg>
